<svg xmlns="http://www.w3.org/2000/svg" viewBox="0 0 120 120" aria-hidden="true"><defs><radialGradient id="g"><stop stop-color="#345059"/><stop offset="1" stop-color="#142630"/></radialGradient></defs><symbol id="background" viewBox="0 0 120 120"><circle cx="60" cy="60" r="56" fill="url(#g)" stroke="#c6a962" stroke-width="4"/></symbol><symbol id="blade" viewBox="0 0 120 120"><use href="#background"/><path d="m25 76 43-49 20-4-4 20-48 43Z" fill="#dce1dc" stroke="#27313a" stroke-width="5"/><path d="m28 72 21 21m-7-36-12-2m30-10 15 12M22 92l14-14 11 11-14 14z" fill="#d8b56f" stroke="#4c3c2a" stroke-width="5"/></symbol><symbol id="armor" viewBox="0 0 120 120"><use href="#background"/><path d="m28 28 32-13 32 13-5 48-27 23-27-23z" fill="#708c93" stroke="#edcf8c" stroke-width="5"/><path d="M60 18v78m-31-58 31 13 31-13M44 39v34m32-34v34" fill="none" stroke="#d7c28f" stroke-width="4"/></symbol><symbol id="potion" viewBox="0 0 120 120"><use href="#background"/><path d="M47 18h26v17l12 13v34q0 11-12 11H47Q35 93 35 82V48l12-13z" fill="#a3484a" stroke="#efcf8b" stroke-width="5"/><path d="M38 65h44v18q0 6-8 6H46q-8 0-8-7z" fill="#d77965"/><path d="M46 18h28" stroke="#f0d18a" stroke-width="7"/></symbol><symbol id="scroll" viewBox="0 0 120 120"><use href="#background"/><path d="M31 27q0-10 11-10h43v59H42Q31 76 31 87z" fill="#e1d0a4" stroke="#644d31" stroke-width="5"/><path d="M40 35h34m-34 12h30m-30 12h32" stroke="#7d6644" stroke-width="4"/><path d="M31 85q0-10 11-10h43q-10 0-10 10t10 10H42Q31 95 31 85z" fill="#ba9257" stroke="#59442c" stroke-width="4"/></symbol><symbol id="ration" viewBox="0 0 120 120"><use href="#background"/><path d="M22 45h76l-8 46H31z" fill="#8d5c39" stroke="#e2c480" stroke-width="5"/><path d="M34 45q6-23 19-3 8-25 18-2 13-19 20 5" fill="#8bad69" stroke="#4e633f" stroke-width="4"/><path d="M30 64h61" stroke="#d9bb79" stroke-width="4"/></symbol><symbol id="ore" viewBox="0 0 120 120"><use href="#background"/><path d="m60 15 35 23-10 42-36 16-25-31 8-36z" fill="#756e67" stroke="#d7c18e" stroke-width="5"/><path d="m60 15 3 40-14 41m46-58L63 55 24 65m39-10 22 25" fill="none" stroke="#d7c18e" stroke-width="4"/></symbol><symbol id="crystal" viewBox="0 0 120 120"><use href="#background"/><path d="M60 13 88 40 78 82 60 99 39 81 31 42z" fill="#78b4b5" stroke="#e5d294" stroke-width="5"/><path d="m60 13 3 42-24 26m49-41L63 55l15 27M31 42h57M60 55v44" fill="none" stroke="#e7f1dd" stroke-width="4"/></symbol><symbol id="key" viewBox="0 0 120 120"><use href="#background"/><circle cx="39" cy="48" r="19" fill="none" stroke="#e4c77f" stroke-width="9"/><path d="M56 62 89 94m-13-13 13-13m-25 2 13-13" fill="none" stroke="#d8ae61" stroke-width="9" stroke-linecap="round"/></symbol><symbol id="fire" viewBox="0 0 120 120"><use href="#background"/><path d="M63 14q8 29-12 39 5-17-6-25-2 25-21 42-12 36 35 36 46 0 40-41-7 14-21 17 7-36-15-68z" fill="#dd7546" stroke="#f2d48a" stroke-width="5"/><path d="M58 93q-15-18 4-34 3 12 12 18 5 10-3 19z" fill="#ffe18d"/></symbol><symbol id="water" viewBox="0 0 120 120"><use href="#background"/><path d="M60 11Q38 45 28 62q-19 35 12 42 38 12 51-12 8-16-6-35z" fill="#5798b7" stroke="#e1d49b" stroke-width="5"/><path d="M42 73q7 12 22 7" fill="none" stroke="#d7ebdc" stroke-width="5" stroke-linecap="round"/></symbol><symbol id="wind" viewBox="0 0 120 120"><use href="#background"/><path d="M18 39h53q19 0 13-15-5-11-16-4m-50 36h68q18 0 16 14-3 13-17 7m-62 9h39" fill="none" stroke="#c6d29b" stroke-width="8" stroke-linecap="round"/><path d="m73 80 11 4-9 8" fill="none" stroke="#e5d28c" stroke-width="4"/></symbol><symbol id="earth" viewBox="0 0 120 120"><use href="#background"/><path d="m24 76 24-47 20 13 19-18 11 52-34 24z" fill="#847050" stroke="#e1ca8d" stroke-width="5"/><path d="m48 29 8 42m31-47L68 72m30 4L56 71" fill="none" stroke="#c7aa6d" stroke-width="4"/></symbol><symbol id="mark" viewBox="0 0 120 120"><use href="#background"/><path d="m60 14 13 29 32 4-24 21 7 32-28-17-28 17 7-32-24-21 32-4z" fill="#d5b96f" stroke="#fff0b0" stroke-width="5"/></symbol></svg>