<svg xmlns="http://www.w3.org/2000/svg" viewBox="0 0 96 96" role="img" aria-labelledby="title"><title id="title">大陸旅誌潮汐羅盤徽記</title><circle cx="48" cy="48" r="35" fill="none" stroke="#d6a35d" stroke-width="2.5"/><circle cx="48" cy="48" r="26" fill="none" stroke="#f0d6a8" stroke-opacity=".55" stroke-width="1"/><path d="M48 16v9M48 71v9M16 48h9M71 48h9M25.4 25.4l6.4 6.4M64.2 64.2l6.4 6.4M70.6 25.4l-6.4 6.4M31.8 64.2l-6.4 6.4" stroke="#d6a35d" stroke-width="2" stroke-linecap="round"/><path d="M48 29 54 46 70 52 53 55 47 71 43 54 27 48 44 45Z" fill="#f0d6a8"/><path d="M28 57c8-6 14-6 20 0s12 6 20 0" fill="none" stroke="#75adb0" stroke-width="2" stroke-linecap="round"/></svg>
